<svg width="20" height="23" viewBox="0 0 20 23" fill="none" xmlns="http://www.w3.org/2000/svg">
<path d="M6.66656 5.74992V9.58229H9.16656V5.74992H10.8332V9.58229H13.3332V5.74992H14.9999V9.58229L15.8332 9.58325C16.4709 9.58321 17.0845 9.8634 17.5484 10.3665C18.0124 10.8696 18.2917 11.5575 18.3291 12.2896L18.3332 12.4583V13.4166C18.3332 14.3883 18.0191 15.2758 17.5007 15.9514L17.4999 20.1249C17.4999 20.3791 17.4121 20.6228 17.2558 20.8026C17.0995 20.9823 16.8876 21.0833 16.6666 21.0833H3.33323C3.11222 21.0833 2.90026 20.9823 2.74398 20.8026C2.5877 20.6228 2.4999 20.3791 2.4999 20.1249V15.9466C2.05212 15.3599 1.76968 14.6307 1.6899 13.8555L1.67156 13.613L1.66656 13.4166V12.4583C1.66653 11.7249 1.91017 11.0193 2.34763 10.4858C2.7851 9.9522 3.38332 9.63107 4.0199 9.58805L4.16656 9.58325L4.9999 9.58229V5.74992H6.66656ZM15.8332 11.4999H4.16656C3.96245 11.5 3.76545 11.5861 3.61292 11.7421C3.46039 11.8981 3.36295 12.113 3.33906 12.3461L3.33323 12.4583V13.3888L3.33573 13.5297C3.36081 14.0177 3.54708 14.4762 3.85642 14.8114C4.16577 15.1467 4.57482 15.3334 4.9999 15.3333C5.39903 15.3341 5.78514 15.17 6.08797 14.871C6.39079 14.572 6.5902 14.1579 6.6499 13.7041L6.6624 13.5575L6.66656 13.3888C6.69656 12.1928 8.18906 12.1497 8.32407 13.2604L8.3324 13.3888L8.33573 13.5297C8.35904 14.0164 8.54277 14.4747 8.84953 14.8112C9.15629 15.1477 9.56302 15.3371 9.98693 15.3409C10.4108 15.3447 10.8201 15.1626 11.1314 14.8316C11.4426 14.5006 11.6325 14.0457 11.6624 13.5594L11.6724 13.2891C11.7757 12.1813 13.2241 12.1813 13.3274 13.2891L13.3374 13.5594C13.3672 14.0431 13.5553 14.4958 13.8638 14.8263C14.1723 15.1568 14.5783 15.3406 14.9999 15.3406C15.4215 15.3406 15.8275 15.1568 16.136 14.8263C16.4445 14.4958 16.6326 14.0431 16.6624 13.5594L16.6666 13.4166V12.4583C16.6665 12.2235 16.5916 11.997 16.456 11.8216C16.3203 11.6462 16.1334 11.5341 15.9307 11.5066L15.8332 11.4999ZM5.83323 0.958252C6.93323 1.79296 7.21907 2.95925 7.04073 3.72592C6.95498 4.09421 6.74552 4.40823 6.45843 4.59892C6.17134 4.7896 5.83015 4.84133 5.5099 4.74271C5.18965 4.64409 4.91658 4.40322 4.75077 4.07307C4.58496 3.74292 4.53998 3.35054 4.62573 2.98225C4.8749 1.9185 5.83323 2.39575 5.83323 0.958252ZM9.9999 0.958252C11.0999 1.79296 11.3857 2.95925 11.2074 3.72592C11.1216 4.09421 10.9122 4.40823 10.6251 4.59892C10.338 4.7896 9.99681 4.84133 9.67657 4.74271C9.35632 4.64409 9.08325 4.40322 8.91744 4.07307C8.75162 3.74292 8.70664 3.35054 8.7924 2.98225C9.04156 1.9185 9.9999 2.39575 9.9999 0.958252ZM14.1666 0.958252C15.2666 1.79296 15.5524 2.95925 15.3741 3.72592C15.2883 4.09421 15.0789 4.40823 14.7918 4.59892C14.5047 4.7896 14.1635 4.84133 13.8432 4.74271C13.523 4.64409 13.2499 4.40322 13.0841 4.07307C12.9183 3.74292 12.8733 3.35054 12.9591 2.98225C13.2082 1.9185 14.1666 2.39575 14.1666 0.958252Z" fill="#F2F2F2"/>
</svg>
