<svg width="20" height="20" viewBox="0 0 20 20" fill="none" xmlns="http://www.w3.org/2000/svg">
<path d="M9.00033 12.3337C10.8413 12.3337 12.3337 10.8413 12.3337 9.00033C12.3337 7.15938 10.8413 5.66699 9.00033 5.66699C7.15938 5.66699 5.66699 7.15938 5.66699 9.00033C5.66699 10.8413 7.15938 12.3337 9.00033 12.3337Z" fill="currentColor"/>
<path d="M9.83366 2.39116V0.666992H8.16699V2.39116C6.70057 2.57839 5.3378 3.24714 4.29247 4.29247C3.24714 5.3378 2.57839 6.70057 2.39116 8.16699H0.666992V9.83366H2.39116C2.57812 11.3002 3.24677 12.6631 4.29216 13.7085C5.33754 14.7539 6.70047 15.4225 8.16699 15.6095V17.3337H9.83366V15.6095C11.3002 15.4227 12.6632 14.7541 13.7087 13.7087C14.7541 12.6632 15.4227 11.3002 15.6095 9.83366H17.3337V8.16699H15.6095C15.4225 6.70047 14.7539 5.33754 13.7085 4.29216C12.6631 3.24677 11.3002 2.57812 9.83366 2.39116ZM9.00033 14.0003C6.24283 14.0003 4.00033 11.7578 4.00033 9.00033C4.00033 6.24283 6.24283 4.00033 9.00033 4.00033C11.7578 4.00033 14.0003 6.24283 14.0003 9.00033C14.0003 11.7578 11.7578 14.0003 9.00033 14.0003Z" fill="white"/>
</svg>
