<svg width="30" height="30" viewBox="0 0 30 30" fill="none" xmlns="http://www.w3.org/2000/svg">
<g clip-path="url(#clip0_1_2510)">
<path d="M30.0001 15.0928C30.0001 6.75652 23.2838 -0.000976562 15.0001 -0.000976562C6.71259 0.000898438 -0.00366211 6.75652 -0.00366211 15.0946C-0.00366211 22.6265 5.48259 28.8703 12.6526 30.0028V19.4559H8.84634V15.0946H12.6563V11.7665C12.6563 7.98465 14.897 5.8959 18.3226 5.8959C19.9651 5.8959 21.6807 6.19027 21.6807 6.19027V9.90277H19.7888C17.927 9.90277 17.3457 11.0671 17.3457 12.2615V15.0928H21.5045L20.8407 19.454H17.3438V30.0009C24.5138 28.8684 30.0001 22.6246 30.0001 15.0928Z" fill="#F2F2F2"/>
</g>
<defs>
<clipPath id="clip0_1_2510">
<rect width="30" height="30" fill="white"/>
</clipPath>
</defs>
</svg>
