<svg width="20" height="18" viewBox="0 0 20 18" fill="none" xmlns="http://www.w3.org/2000/svg">
<path d="M9.99952 0C9.6247 -5.58522e-09 9.25355 0.0738258 8.90727 0.217262C8.56098 0.360699 8.24634 0.570937 7.9813 0.835974C7.71626 1.10101 7.50602 1.41565 7.36259 1.76194C7.21915 2.10823 7.14532 2.47938 7.14532 2.85419C7.14532 3.22901 7.21915 3.60016 7.36259 3.94645C7.50602 4.29273 7.71626 4.60738 7.9813 4.87241C8.24634 5.13745 8.56098 5.34769 8.90727 5.49112C9.25355 5.63456 9.6247 5.70839 9.99952 5.70839C10.7565 5.70839 11.4825 5.40768 12.0177 4.87241C12.553 4.33715 12.8537 3.61117 12.8537 2.85419C12.8537 2.09721 12.553 1.37124 12.0177 0.835974C11.4825 0.300709 10.7565 0 9.99952 0Z" fill="white"/>
<path d="M16.4276 1.42578C15.8593 1.42578 15.3143 1.65154 14.9125 2.05339C14.5106 2.45524 14.2849 3.00027 14.2849 3.56857C14.2849 4.13687 14.5106 4.6819 14.9125 5.08375C15.3143 5.4856 15.8593 5.71136 16.4276 5.71136C16.9959 5.71136 17.541 5.4856 17.9428 5.08375C18.3447 4.6819 18.5704 4.13687 18.5704 3.56857C18.5704 3.00027 18.3447 2.45524 17.9428 2.05339C17.541 1.65154 16.9959 1.42578 16.4276 1.42578Z" fill="white"/>
<path d="M3.57101 1.42578C3.00271 1.42578 2.45768 1.65154 2.05583 2.05339C1.65398 2.45524 1.42822 3.00027 1.42822 3.56857C1.42822 4.13687 1.65398 4.6819 2.05583 5.08375C2.45768 5.4856 3.00271 5.71136 3.57101 5.71136C4.13931 5.71136 4.68434 5.4856 5.08619 5.08375C5.48804 4.6819 5.7138 4.13687 5.7138 3.56857C5.7138 3.00027 5.48804 2.45524 5.08619 2.05339C4.68434 1.65154 4.13931 1.42578 3.57101 1.42578Z" fill="white"/>
<path d="M5.71375 8.55805C5.71639 8.18092 5.86805 7.82013 6.13567 7.55439C6.40328 7.28865 6.76513 7.13952 7.14227 7.13953H12.8564C13.2352 7.13953 13.5986 7.29003 13.8665 7.55793C14.1344 7.82583 14.2849 8.18918 14.2849 8.56805V12.8536C14.2848 13.3032 14.2144 13.75 14.0763 14.1779C13.76 15.1474 13.1084 15.9724 12.2386 16.5048C11.3687 17.0371 10.3375 17.242 9.33024 17.0825C8.32295 16.9229 7.40552 16.4096 6.74269 15.6345C6.07985 14.8594 5.71503 13.8735 5.71375 12.8536V8.56805V8.55805Z" fill="white"/>
<path d="M4.28558 8.56805C4.28558 8.04664 4.42414 7.55951 4.66842 7.13953H1.42853C1.04966 7.13953 0.686306 7.29003 0.418406 7.55793C0.150505 7.82583 1.97727e-07 8.18918 1.97727e-07 8.56805V12.1394C-0.000194348 12.7241 0.143175 13.2999 0.417519 13.8162C0.691863 14.3326 1.08879 14.7737 1.57344 15.1008C2.05809 15.4278 2.61564 15.6309 3.19712 15.6922C3.7786 15.7535 4.36624 15.671 4.90841 15.4521C4.49725 14.6472 4.28375 13.756 4.28558 12.8522V8.56805Z" fill="white"/>
<path d="M15.7143 8.56805V12.8536C15.7143 13.7893 15.49 14.6721 15.0914 15.4521C15.6336 15.671 16.2212 15.7535 16.8027 15.6922C17.3842 15.6309 17.9418 15.4278 18.4264 15.1008C18.9111 14.7737 19.308 14.3326 19.5823 13.8162C19.8567 13.2999 20 12.7241 19.9998 12.1394V8.56805C19.9998 8.18918 19.8493 7.82583 19.5814 7.55793C19.3135 7.29003 18.9502 7.13953 18.5713 7.13953H15.3314C15.5743 7.55951 15.7143 8.04664 15.7143 8.56805Z" fill="white"/>
</svg>
