<svg width="32" height="32" viewBox="0 0 32 32" fill="currentColor" xmlns="http://www.w3.org/2000/svg">
<path d="M15.5556 0C12.479 0 9.47146 0.912317 6.91336 2.62158C4.35526 4.33085 2.36147 6.7603 1.1841 9.6027C0.00673993 12.4451 -0.301312 15.5728 0.298903 18.5903C0.899117 21.6078 2.38064 24.3795 4.55612 26.555C6.73161 28.7305 9.50334 30.212 12.5208 30.8122C15.5383 31.4124 18.666 31.1044 21.5084 29.927C24.3508 28.7497 26.7803 26.7559 28.4895 24.1978C30.1988 21.6397 31.1111 18.6322 31.1111 15.5556C31.1111 11.43 29.4722 7.47335 26.555 4.55612C23.6378 1.63888 19.6812 0 15.5556 0ZM15.5556 29.1667C12.8635 29.1667 10.232 28.3684 7.99363 26.8728C5.7553 25.3772 4.01073 23.2514 2.98054 20.7643C1.95034 18.2772 1.6808 15.5405 2.20599 12.9002C2.73117 10.2599 4.02751 7.83459 5.93105 5.93105C7.8346 4.0275 10.2599 2.73117 12.9002 2.20598C15.5405 1.68079 18.2772 1.95034 20.7643 2.98053C23.2514 4.01072 25.3772 5.75529 26.8728 7.99363C28.3684 10.232 29.1667 12.8635 29.1667 15.5556C29.1667 19.1654 27.7327 22.6275 25.1801 25.1801C22.6275 27.7326 19.1655 29.1667 15.5556 29.1667Z" fill="white"/>
</svg>
