<svg width="20" height="18" viewBox="0 0 20 18" fill="none" xmlns="http://www.w3.org/2000/svg">
<path d="M9.99946 0C9.62464 -5.58522e-09 9.25349 0.0738258 8.9072 0.217262C8.56092 0.360699 8.24627 0.570937 7.98124 0.835974C7.7162 1.10101 7.50596 1.41565 7.36253 1.76194C7.21909 2.10823 7.14526 2.47938 7.14526 2.85419C7.14526 3.22901 7.21909 3.60016 7.36253 3.94645C7.50596 4.29273 7.7162 4.60738 7.98124 4.87241C8.24627 5.13745 8.56092 5.34769 8.9072 5.49112C9.25349 5.63456 9.62464 5.70839 9.99946 5.70839C10.7564 5.70839 11.4824 5.40768 12.0177 4.87241C12.5529 4.33715 12.8537 3.61117 12.8537 2.85419C12.8537 2.09721 12.5529 1.37124 12.0177 0.835974C11.4824 0.300709 10.7564 0 9.99946 0Z" fill="white"/>
<path d="M16.4277 1.42578C15.8594 1.42578 15.3144 1.65154 14.9125 2.05339C14.5107 2.45524 14.2849 3.00027 14.2849 3.56857C14.2849 4.13687 14.5107 4.6819 14.9125 5.08375C15.3144 5.4856 15.8594 5.71136 16.4277 5.71136C16.996 5.71136 17.541 5.4856 17.9429 5.08375C18.3447 4.6819 18.5705 4.13687 18.5705 3.56857C18.5705 3.00027 18.3447 2.45524 17.9429 2.05339C17.541 1.65154 16.996 1.42578 16.4277 1.42578Z" fill="#FFB800"/>
<path d="M3.57101 1.42578C3.00271 1.42578 2.45768 1.65154 2.05583 2.05339C1.65398 2.45524 1.42822 3.00027 1.42822 3.56857C1.42822 4.13687 1.65398 4.6819 2.05583 5.08375C2.45768 5.4856 3.00271 5.71136 3.57101 5.71136C4.13931 5.71136 4.68434 5.4856 5.08619 5.08375C5.48804 4.6819 5.7138 4.13687 5.7138 3.56857C5.7138 3.00027 5.48804 2.45524 5.08619 2.05339C4.68434 1.65154 4.13931 1.42578 3.57101 1.42578Z" fill="#FFB800"/>
<path d="M5.71387 8.55805C5.71651 8.18092 5.86818 7.82013 6.13579 7.55439C6.40341 7.28865 6.76525 7.13952 7.14239 7.13953H12.8565C13.2354 7.13953 13.5987 7.29003 13.8666 7.55793C14.1345 7.82583 14.285 8.18918 14.285 8.56805V12.8536C14.2849 13.3032 14.2146 13.75 14.0765 14.1779C13.7601 15.1474 13.1085 15.9724 12.2387 16.5048C11.3688 17.0371 10.3377 17.242 9.33036 17.0825C8.32307 16.9229 7.40564 16.4096 6.74281 15.6345C6.07997 14.8594 5.71516 13.8735 5.71387 12.8536V8.56805V8.55805Z" fill="white"/>
<path d="M4.28558 8.56805C4.28558 8.04664 4.42414 7.55951 4.66842 7.13953H1.42853C1.04966 7.13953 0.686306 7.29003 0.418406 7.55793C0.150505 7.82583 1.97727e-07 8.18918 1.97727e-07 8.56805V12.1394C-0.000194348 12.7241 0.143175 13.2999 0.417519 13.8162C0.691863 14.3326 1.08879 14.7737 1.57344 15.1008C2.05809 15.4278 2.61564 15.6309 3.19712 15.6922C3.7786 15.7535 4.36624 15.671 4.90841 15.4521C4.49725 14.6472 4.28375 13.756 4.28558 12.8522V8.56805Z" fill="#FFB800"/>
<path d="M15.7141 8.56805V12.8536C15.7141 13.7893 15.4899 14.6721 15.0913 15.4521C15.6335 15.671 16.2211 15.7535 16.8026 15.6922C17.3841 15.6309 17.9416 15.4278 18.4263 15.1008C18.9109 14.7737 19.3079 14.3326 19.5822 13.8162C19.8565 13.2999 19.9999 12.7241 19.9997 12.1394V8.56805C19.9997 8.18918 19.8492 7.82583 19.5813 7.55793C19.3134 7.29003 18.9501 7.13953 18.5712 7.13953H15.3313C15.5742 7.55951 15.7141 8.04664 15.7141 8.56805Z" fill="#FFB800"/>
</svg>
