<svg width="2774" height="2883" viewBox="0 0 2774 2883" fill="none" xmlns="http://www.w3.org/2000/svg">
<path d="M1386.92 0C1112.61 0 844.464 84.5424 616.387 242.936C388.31 401.331 210.545 626.462 105.573 889.862C0.600952 1153.26 -26.8647 1443.1 26.6499 1722.72C80.1643 2002.35 212.255 2259.2 406.219 2460.8C600.183 2662.39 847.308 2799.68 1116.34 2855.3C1385.38 2910.93 1664.24 2882.37 1917.66 2773.28C2171.09 2664.17 2387.7 2479.41 2540.1 2242.36C2692.5 2005.3 2773.83 1726.6 2773.83 1441.5C2773.83 1059.19 2627.71 692.539 2367.62 422.205C2107.52 151.873 1754.75 0 1386.92 0ZM1386.92 2702.81C1146.9 2702.81 912.271 2628.84 712.704 2490.24C513.136 2351.65 357.592 2154.66 265.741 1924.18C173.89 1693.71 149.858 1440.1 196.684 1195.43C243.508 950.76 359.088 726.016 528.806 549.618C698.524 373.22 914.758 253.091 1150.16 204.423C1385.57 155.755 1629.58 180.734 1851.32 276.199C2073.07 371.665 2262.6 533.33 2395.95 740.753C2529.29 948.174 2600.47 1192.04 2600.47 1441.5C2600.47 1776.02 2472.61 2096.85 2245.03 2333.38C2017.45 2569.92 1708.77 2702.81 1386.92 2702.81Z" fill="white"/>
</svg>
